<svg fill="none" height="16" viewBox="0 0 17 16" width="17" xmlns="http://www.w3.org/2000/svg"><path d="m7.99998 1.44147c2.13612 0 2.38912.00813 3.23272.04662.7799.0356 1.2035.16592 1.4855.27545.3734.14513.6399.31851.9198.59844s.4533.54646.5984.91985c.1096.28193.2399.70552.2755 1.48548.0385.8436.0466 1.0966.0466 3.23271 0 2.13608-.0081 2.38908-.0466 3.23268-.0356.78-.1659 1.2036-.2755 1.4855-.1451.3734-.3185.6399-.5984.9198-.2799.28-.5464.4534-.9198.5985-.282.1095-.7056.2398-1.4855.2754-.8435.0385-1.0965.0467-3.23272.0467-2.13623 0-2.38923-.0082-3.23267-.0467-.77999-.0356-1.20358-.1659-1.48548-.2754-.37342-.1451-.63995-.3185-.91988-.5985-.27993-.2799-.45332-.5464-.59841-.9198-.10956-.2819-.23988-.7055-.27548-1.4855-.03849-.8436-.04662-1.0966-.04662-3.23268 0-2.13611.00813-2.38911.04662-3.23267.0356-.78.16592-1.20359.27548-1.48552.14509-.37339.31848-.63992.59841-.91985s.54646-.45331.91988-.59844c.2819-.10953.70549-.23985 1.48545-.27545.8436-.03849 1.0966-.04662 3.2327-.04662zm0-1.44147c-2.17268 0-2.44508.00920926-3.29837.0481422-.85154.0388694-1.43306.1740868-1.94195.3718638-.52607.204445-.97221.477992-1.41695.922734-.444744.44474-.718291.89089-.922736 1.41696-.197777.50889-.3329942 1.0904-.3718636 1.94194-.0389329.85326-.0481104 1.12569-.0481104 3.29838 0 2.17268.0091775 2.44508.0481104 3.29838.0388694.8515.1740866 1.433.3718636 1.9419.204445.5261.477992.9722.922736 1.417.44474.4447.89088.7183 1.41695.9227.50889.1978 1.09041.333 1.94195.3719.85329.0389 1.12569.0481 3.29837.0481 2.17272 0 2.44512-.0092 3.29842-.0481.8515-.0389 1.433-.1741 1.9419-.3719.5261-.2044.9722-.478 1.417-.9227.4447-.4448.7182-.8909.9227-1.417.1978-.5089.333-1.0904.3719-1.9419.0389-.8533.0481-1.1257.0481-3.29838 0-2.17269-.0092-2.44512-.0481-3.29838-.0389-.85154-.1741-1.43305-.3719-1.94194-.2045-.52607-.478-.97222-.9227-1.41696-.4448-.444742-.8909-.718289-1.417-.922734-.5089-.197777-1.0904-.3329944-1.9419-.3718638-.8533-.03893294-1.1257-.0481422-3.29842-.0481422zm0 3.89189c-2.26884 0-4.10812 1.83928-4.10812 4.10813 0 2.26888 1.83928 4.10808 4.10812 4.10808 2.26882 0 4.10812-1.8392 4.10812-4.10808 0-2.26885-1.8393-4.10813-4.10812-4.10813zm0 6.77481c-1.47275 0-2.66668-1.19393-2.66668-2.66668s1.19393-2.66669 2.66668-2.66669 2.66672 1.19394 2.66672 2.66669-1.19397 2.66668-2.66672 2.66668zm5.23042-6.93711c0 .5302-.4298.96002-.96.96002s-.96-.42982-.96-.96002.4298-.95999.96-.95999.96.42979.96.95999z" fill="#1c1c1c" transform="translate(.799805)"/></svg>