<svg fill="none" height="43" viewBox="0 0 41 43" width="41" xmlns="http://www.w3.org/2000/svg"><path d="m13.6019 8.61045c1.5678-.86925 3.3205-1.44419 5.184-1.65051v-6.95994h3.4282v7.00139c1.8324.24826 3.5517.85384 5.0859 1.74448l4.1556-5.73508 2.7735 2.02049-4.1952 5.78972c1.2639 1.2308 2.2957 2.7 3.0232 4.3352l6.8835-2.2426 1.0594 3.2692-6.945 2.2627c.134.7779.2039 1.5778.2039 2.3941 0 .9586-.0964 1.8947-.2799 2.799l7.021 2.2874-1.0594 3.2692-7.0563-2.2989c-.7516 1.5632-1.7851 2.9646-3.0343 4.1377l4.3791 6.0435-2.7735 2.0205-4.3762-6.0394c-1.4777.8222-3.1202 1.3827-4.8653 1.6191v7.4311h-3.4282v-7.3896c-1.7754-.1966-3.4503-.7278-4.9605-1.5293l-4.28097 5.9081-2.77351-2.0205 4.24438-5.8575c-1.31434-1.1867-2.40211-2.6207-3.1904-4.229l-6.76551 2.2042-1.05939-3.2692 6.70544-2.1846c-.19731-.9361-.30109-1.9068-.30109-2.9018 0-.8527.0762-1.6874.22216-2.4979l-6.62651-2.1589 1.05939-3.2692 6.58976 2.1469c.76336-1.6815 1.84958-3.1846 3.17925-4.4296l-4.05748-5.59962 2.77351-2.02049zm6.7297 22.75635c5.7984 0 10.499-4.7132 10.499-10.5272s-4.7006-10.5272-10.499-10.5272-10.49901 4.7132-10.49901 10.5272 4.70061 10.5272 10.49901 10.5272z" fill="#fff"/></svg>