<svg fill="none" height="16" viewBox="0 0 19 16" width="19" xmlns="http://www.w3.org/2000/svg"><path clip-rule="evenodd" d="m18.0471 1.73586c-.6636.29493-1.3784.49363-2.1257.58236.7648-.45739 1.3522-1.18223 1.6271-2.047032-.7161.423654-1.5071.732332-2.352.897292-.6736-.719832-1.6371-1.16848-2.7018-1.16848-2.0446 0-3.7017 1.65837-3.7017 3.70166 0 .29118.03124.57237.09498.84356-3.0768-.15497-5.80493-1.62713-7.63202-3.869124-.318673.548624-.501132 1.184734-.501132 1.863324 0 1.28346.653602 2.41695 1.647122 3.0818-.60611-.01874-1.17723-.18745-1.677115-.46239v.04499c0 1.79459 1.275965 3.29175 2.970575 3.63042-.31118.08748-.63736.13122-.97603.13122-.23869 0-.47114-.02249-.69609-.06623.47114 1.47087 1.83708 2.54197 3.45796 2.57067-1.26721.9935-2.86435 1.5846-4.597701 1.5846-.299932 0-.594865-.0162-.88354902-.0512 1.63838002 1.0498 3.58418002 1.6634 5.67496002 1.6634 6.81224 0 10.53514-5.64125 10.53514-10.53514 0-.15996-.0025-.32118-.01-.47864.7236-.52238 1.3522-1.17473 1.847-1.91706z" fill="#fff" fill-rule="evenodd" transform="translate(.733643 .666748)"/></svg>